<?xml version="1.0" encoding="UTF-8"?>
<svg id="Layer_1" data-name="Layer 1" xmlns="http://www.w3.org/2000/svg" viewBox="0 0 2000 2000">
  <defs>
    <style>
      .cls-1 {
        fill: #020202;
      }

      .cls-1, .cls-2 {
        stroke-width: 0px;
      }
    </style>
  </defs>
  <path class="cls-1" d="M1547.32,1007.18c.03.36.03.72.02,1.07-1.07,26.47-.44,45.89-3.01,64.87-3.62,26.73-8.71,53.36-14.89,79.63-8.61,36.53-21.89,71.55-39.38,104.84-33.59,63.95-79.25,116.96-142.16,153.65-33.47,19.52-69.44,32.5-108.46,35.53-12.83,1-25.69,2.3-38.54,2.25-53.1-.2-101.78-14.82-145.15-45.92-5.5-3.94-10.99-8.05-15.79-12.78-4.73-4.65-7.25-2.5-10.9,1.32-10.49,10.95-20.99,21.95-32.22,32.11-30.83,27.88-66.12,48.19-105.86,60.61-24.38,7.62-49.33,11.33-74.78,13.76-23.17,2.22-45.94.45-68.49-2.74-29.45-4.16-57.54-13.91-84.13-27.59-72.3-37.2-125.06-93.5-161.6-165.55-20.86-41.15-33.83-84.77-41.44-130.27-7.28-43.55-8.82-87.34-7.27-131.23,2.5-70.78,15.63-139.57,42.51-205.35,36.33-88.92,92.11-163.37,168.14-222.13,56.56-43.71,119.53-74.9,188.94-92.74,29.96-7.7,60.26-12.9,91.11-15.97,32.24-3.21,64.45-3.87,96.73-3.43,26.74.36,53.3,3.14,79.82,7.02,32.35,4.73,63.78,12.6,94.57,23.33,45.06,15.7,87.02,37.47,126.25,64.62,45.08,31.2,83.5,69.07,114.8,114.09,29.15,41.93,50.71,87.53,65.9,136.28,9.13,29.31,16,59.13,19.7,89.5,3.16,25.96,4.18,52.18,5.59,71.22ZM949.3,929.27c2.33-4.97,9.38-19.47,25.16-27.31,28.34-14.1,62.65,4.32,79.54,19.95,7.7,7.12,11.99,13.86,19.78,26.1,3.58,5.62,13.8,22.26,23.09,48.93,10.06,28.86,12.7,51.67,16.05,78.34,3.78,30.02,3.52,49.28,3.39,55.29-.25,11.24-1.71,26.1-4.07,45.57-2.76,22.76-6.16,45.3-12.24,67.35-1.97,7.13-.81,12.19,3.97,17.55,27.75,31.07,62.53,47.48,103.96,48.37,44.91.96,83.42-16.13,115.52-46.7,60.4-57.51,89.1-130.52,96.69-211.75,4.32-46.22.83-92.72-10.89-138.28-12.98-50.45-34.34-96.74-66.96-137.29-37.47-46.58-84.8-80.86-138.6-106.41-36.72-17.44-75.73-27.35-115.75-32.75-21.99-2.97-44.35-3.68-66.58-4.36-42.41-1.3-84.24,3.06-125.46,13.77-50.87,13.21-97.75,34.84-140.58,65.08-80.54,56.87-132.38,133.69-157.45,228.77-7.4,28.07-13.08,56.57-14.09,85.64-1.09,31.29-2.53,62.73-.79,93.93,1.93,34.54,11.01,67.97,24.47,100.01,15.47,36.8,37.11,69.49,66.31,96.76,39.03,36.45,84.98,53.32,138.84,48.87,45.49-3.76,82.65-22.83,112.88-56.51,34.43-38.37,49.92-84.68,54.93-134.76,2.53-25.3,2.14-50.92,2.5-76.4.16-11.38-.62-27.41-5.6-46.69-1.16-4.51-2.29-8.09-2.79-9.65-5.61-17.48-11.69-27.05-19.09-41.63h0c-2.14-3.51-21.66-36.74-6.16-69.76Z"/>
  <g>
    <path class="cls-2" d="M1224.27,1038.23h-78.02v-78.32h78.02v78.32ZM1209.64,1023.5v-48.95h-48.75v48.95h48.75Z"/>
    <path class="cls-2" d="M1316.33,842.22c21.76.03,39.31,17.58,39.3,39.29-.01,21.81-17.66,39.35-39.54,39.3-21.53-.05-39.06-17.69-39.06-39.31,0-21.71,17.6-39.31,39.3-39.28ZM1341.25,881.56c.01-13.84-11.11-24.99-24.92-24.98-13.84.01-24.94,11.14-24.92,24.98.02,13.69,11.11,24.83,24.8,24.9,13.75.08,25.02-11.13,25.04-24.9Z"/>
    <path class="cls-2" d="M1361.71,1035.05h-90.76c15.16-26.26,30.16-52.25,45.37-78.61,15.17,26.27,30.17,52.26,45.39,78.61ZM1339.27,1022.1c-7.73-13.38-15.25-26.41-22.94-39.73-7.7,13.35-15.24,26.41-22.93,39.73h45.87Z"/>
    <path class="cls-2" d="M1224.7,912.85c-3.75,3.74-7.14,7.12-10.69,10.67-9.45-9.48-18.99-19.04-28.73-28.81-9.68,9.72-19.17,19.25-28.53,28.64-3.48-3.46-6.91-6.87-10.46-10.41,9.44-9.38,18.98-18.87,28.58-28.41-9.69-9.65-19.22-19.15-28.67-28.56,3.67-3.61,7.12-7,10.58-10.41,9.2,9.23,18.7,18.76,28.23,28.31,9.78-9.82,19.3-19.39,28.72-28.84,3.8,3.8,7.23,7.23,10.86,10.86-9.43,9.38-18.97,18.87-28.54,28.39,9.62,9.59,19.14,19.09,28.66,28.58Z"/>
  </g>
  <g>
    <path class="cls-2" d="M912.68,1155.46c-.19,25.79-20.92,46.4-46.57,46.31-25.83-.09-46.46-20.98-46.27-46.85.19-25.58,20.98-46.15,46.53-46.02,25.73.13,46.5,21.01,46.32,46.57ZM866.1,1196.18c22.45.11,40.83-18.11,41-40.65.17-22.54-18-40.79-40.89-41.06-22.15-.26-40.6,18.07-40.78,40.51-.18,22.7,17.96,41.09,40.66,41.2Z"/>
    <path class="cls-2" d="M729.6,1064.87c.17-25.58,21.01-46.36,46.37-46.21,26.11.15,46.65,20.92,46.45,46.98-.2,25.52-21.08,46.06-46.64,45.88-25.78-.18-46.34-20.95-46.18-46.64ZM816.81,1065.13c-.01-22.71-18.3-40.95-40.99-40.89-22.45.07-40.71,18.48-40.63,40.99.08,22.59,18.26,40.67,40.88,40.67,22.59,0,40.75-18.17,40.74-40.77Z"/>
    <path class="cls-2" d="M685.93,1108.89c25.81.06,46.38,20.89,46.28,46.85-.11,25.48-20.95,46.08-46.54,45.99-25.73-.09-46.33-20.78-46.33-46.54,0-25.59,20.91-46.36,46.59-46.3ZM685.86,1196.12c22.6-.02,40.68-18.12,40.74-40.78.06-22.53-18.17-40.81-40.72-40.84-22.54-.03-40.85,18.14-40.96,40.67-.12,22.59,18.26,40.97,40.94,40.95Z"/>
    <path class="cls-2" d="M822.44,1245.41c.06,25.71-20.51,46.41-46.3,46.59-25.67.18-46.57-20.75-46.54-46.61.03-25.56,20.62-46.15,46.28-46.26,25.67-.11,46.5,20.59,46.56,46.29ZM735.18,1245.33c-.07,22.67,18.26,41.11,40.84,41.09,22.5-.02,40.68-18.18,40.86-40.81.18-22.41-18.1-40.75-40.72-40.86-22.54-.11-40.91,18.07-40.98,40.58Z"/>
    <path class="cls-2" d="M787.29,1155.36c.01,6.08-5.18,11.25-11.3,11.24-6.11-.02-11.31-5.24-11.25-11.3.06-6.18,5.13-11.22,11.31-11.25,6.08-.03,11.22,5.15,11.24,11.31Z"/>
    <path class="cls-2" d="M851.58,1155.18c0-4.18-.05-8.36.02-12.54.1-5.67,4.44-8.29,9.34-5.54,7.53,4.23,15.01,8.56,22.45,12.95,4.5,2.66,4.51,7.84-.01,10.52-7.43,4.41-14.91,8.73-22.43,12.98-4.75,2.68-9.16.18-9.32-5.27-.14-4.37-.03-8.74-.03-13.11Z"/>
    <path class="cls-2" d="M775.81,1079.75c-4.18,0-8.36.07-12.54-.02-5.65-.12-8.22-4.5-5.46-9.39,4.25-7.52,8.58-15,12.96-22.44,2.56-4.35,7.8-4.45,10.38-.13,4.47,7.5,8.84,15.06,13.1,22.69,2.69,4.82.18,9.12-5.33,9.28-4.37.13-8.74.03-13.11.03h0Z"/>
    <path class="cls-2" d="M700.45,1155.41c0,4.18.05,8.36-.01,12.54-.08,5.77-4.51,8.34-9.55,5.49-7.27-4.12-14.5-8.3-21.7-12.54-5.3-3.12-5.2-8.16.15-11.27,7.06-4.1,14.13-8.19,21.21-12.24,5.51-3.16,9.84-.63,9.91,5.78.04,4.08,0,8.17,0,12.25h-.01Z"/>
    <path class="cls-2" d="M776.13,1230.89c4.18,0,8.36-.07,12.54.02,5.82.12,8.34,4.51,5.47,9.58-4.17,7.35-8.41,14.66-12.68,21.94-2.81,4.8-8.04,4.83-10.87.04-4.29-7.28-8.51-14.6-12.68-21.94-2.87-5.06-.38-9.47,5.41-9.61,4.27-.1,8.55-.02,12.82-.02Z"/>
  </g>
</svg>